<?xml version="1.0" encoding="iso-8859-1"?>
<!-- Generator: Adobe Illustrator 19.0.0, SVG Export Plug-In . SVG Version: 6.00 Build 0)  -->
<svg xmlns="http://www.w3.org/2000/svg" xmlns:xlink="http://www.w3.org/1999/xlink" version="1.1" id="Capa_1" x="0px" y="0px" viewBox="0 0 512 512" style="enable-background:new 0 0 512 512;" xml:space="preserve" width="512px" height="512px">
<g>
	<g>
		<path d="M222,126.01c-5.53,0-9.99,4.452-9.99,9.99c0,6.359,5.796,11.039,11.99,9.788c4.629-0.935,7.99-4.994,7.99-9.788    C231.99,130.47,227.538,126.01,222,126.01z" fill="#FFFFFF"/>
	</g>
</g>
<g>
	<g>
		<path d="M482,246c16.542,0,30-13.458,30-30c0-9.679,0-70.257,0-80c0-27.57-22.43-50-50-50H10C4.477,86,0,90.477,0,96v60    c0,16.542,13.458,30,30,30h10v30c0,16.542,13.458,30,30,30h142.559c4.991,44.937,43.196,80,89.441,80h49.756l17,76.506    C371.826,416.339,383.868,426,398.04,426h79.03c19.206,0,33.449-17.793,29.281-36.509C474.228,244.677,475.95,253.266,475.95,252    C475.95,249.114,478.263,246,482,246z M30,166c-5.514,0-10-4.486-10-10v-10h162c5.523,0,10-4.477,10-10s-4.477-10-10-10H20v-20    h442c16.542,0,30,13.458,30,30v30h-33.82l12.764-25.528c2.47-4.94,0.468-10.947-4.473-13.417    c-4.939-2.47-10.946-0.468-13.416,4.472L435.82,166h-17.64l12.764-25.528c2.47-4.94,0.468-10.947-4.473-13.417    c-4.939-2.47-10.946-0.468-13.416,4.472L395.82,166h-17.64l12.764-25.528c2.47-4.94,0.468-10.947-4.473-13.417    c-4.939-2.47-10.946-0.468-13.416,4.472L355.82,166h-17.64l12.764-25.528c2.47-4.94,0.468-10.947-4.473-13.417    s-10.946-0.468-13.416,4.472L315.82,166C304.385,166,39.755,166,30,166z M302,306c-35.202,0-64.406-26.124-69.274-60    c21.269,0,39.46,0,61.144,0c5.245,0,10.47,0.852,15.443,2.464C304.557,258.957,294.038,266,282,266c-5.522,0-10,4.477-10,10    s4.478,10,10,10c19.442,0,36.506-11.036,44.758-27.648c7.956,6.938,13.58,16.263,15.921,26.797L347.312,306H302z M486.829,393.833    c1.391,6.246-3.371,12.167-9.759,12.167h-79.03c-4.648,0-8.752-3.292-9.759-7.83l-26.079-117.36    c-2.982-13.419-9.773-25.535-19.358-34.911h113.814c-0.931,3.919-0.929,7.933-0.08,11.79L486.829,393.833z M70,226    c-5.514,0-10-4.486-10-10v-30c13.451,0,391.19,0,432,0v30c0,5.514-4.486,10-10,10C459.618,226,82.788,226,70,226z" fill="#FFFFFF"/>
	</g>
</g>
<g>
	<g>
		<path d="M461.901,373.83l-22.229-100c-1.017-4.575-5.075-7.83-9.762-7.83h-38.05c-3.033,0-5.902,1.377-7.801,3.743    c-1.897,2.366-2.619,5.466-1.961,8.427l22.229,100c1.017,4.575,5.075,7.83,9.762,7.83h38.05    C458.529,386,463.289,380.074,461.901,373.83z M422.111,366l-17.784-80h17.562l17.784,80H422.111z" fill="#FFFFFF"/>
	</g>
</g>
<g>
</g>
<g>
</g>
<g>
</g>
<g>
</g>
<g>
</g>
<g>
</g>
<g>
</g>
<g>
</g>
<g>
</g>
<g>
</g>
<g>
</g>
<g>
</g>
<g>
</g>
<g>
</g>
<g>
</g>
</svg>
